<svg id="logo" xmlns="http://www.w3.org/2000/svg" viewBox="0 0 75.1 75.1"><defs><style>.cls-1{fill:#fff;}.cls-2{fill:#222221;}</style></defs><g id="lg-sw"><circle class="cls-1" cx="37.6" cy="37.6" r="37.6"/><path class="cls-2" d="M11,11a37.5,37.5,0,0,0,0,53.1L64.1,11A37.5,37.5,0,0,0,11,11Z"/><g id="läufer"><path class="cls-2" d="M55.1,45.6a6.8,6.8,0,0,0-.5-2.5.2.2,0,0,1,0-.3,1.5,1.5,0,0,0,.1-.6,3,3,0,0,0-.3-1.6,2.4,2.4,0,0,0-1.3-.9l-1.8-.5a.1.1,0,0,1-.1-.1V37.7a.7.7,0,0,0,.4-.6,1.1,1.1,0,0,0,0-.6h0c0-.2.1-2-1.6-2a1.7,1.7,0,0,0-1.9,1.8,3.8,3.8,0,0,0,.1,1l.5.7v1.2h-.6c-.9.1-2.6.5-3,1.3s-.6,2.6-.8,3a4.4,4.4,0,0,0,.3,1.5c0,.4.3,2.2.3,2.2s.3.4.2.6,0,1.6.3,1.9.8,1.9,1.1,1.8a5.6,5.6,0,0,0,0-1.3.1.1,0,0,1,0-.2h.1v-.8a2.7,2.7,0,0,0,0-.9c-.1-.3-.6-.3-.6-.7s.3-1.9.3-2.4-.4-1.4-.4-1.4l.8-1a7.4,7.4,0,0,1,.2,1.8c0,.4.5.7.5,1.7s-.1.9-.1,1.6a6.6,6.6,0,0,0,0,2c0,.1,0,.1-.1.1l-.3,1.3v.2c.1.3.4,1.3.7,2a6.9,6.9,0,0,0,1.2,1.6,15.7,15.7,0,0,0-.3,1.6,10.2,10.2,0,0,0,.5,1.8,11.5,11.5,0,0,1,.2,1.6c0,.4.4,1.4.5,2s-.3,1.2-.2,1.3a3.8,3.8,0,0,1-.1,1c-.1.3-.7,1.7-.5,2.1a1.3,1.3,0,0,0,1.1.4s-.3,1.9.8,1.9,1.1-1.4,1-1.9a5.1,5.1,0,0,1,.2-2.5,18.2,18.2,0,0,1,.8-1.9,13.1,13.1,0,0,0,0-2.8c0-.3.3-1,.3-1.2a7.8,7.8,0,0,0,.4-1.9,22.7,22.7,0,0,0,.6-3,10.2,10.2,0,0,0-.1-3,16.9,16.9,0,0,1-.6-3.8h0c.2.7,1.3,1.4,1.8.9S55.1,46.1,55.1,45.6Zm-4,13.7a10.6,10.6,0,0,1-.4,1.9h-.1V59.6c.1-.4.2-1.4.3-1.8h0A6.8,6.8,0,0,1,51.1,59.3Z"/><path class="cls-2" d="M54.5,45.9a3.4,3.4,0,0,0-.4-1c-.1-.2-.8-.9-.9-1.4s-.2-1.7-.4-2.1a6.4,6.4,0,0,0-1-1.4c-.2-.1-.1.1-.1.2s.3,1,.3,1.2-.3-.4-.3-.3a6.4,6.4,0,0,0,.2.9c0,.1.1.9.1,1a3.1,3.1,0,0,1,.5,1,18,18,0,0,1,.5,1.9,9.2,9.2,0,0,1,.3.9Z"/><path class="cls-2" d="M48.6,35.9c0-.1,0-.1.1-.1l1,.3c.3,0,1.1,0,1.4-.3s.2,1.8.1,1.9-.7,1.2-1.2,1.2a2.7,2.7,0,0,1-1.3-.9c0-.2-.2-1.3-.2-1.7S48.5,36,48.6,35.9Z"/></g><g id="text"><path class="cls-1" d="M7,33.4l-.5-.7a2.1,2.1,0,0,0,.6-1c.1-.4,0-.6-.2-.7s-.4.2-.7.6l-.3.5a1.3,1.3,0,0,1-1.3.6,1.4,1.4,0,0,1-1-1.7,1.8,1.8,0,0,1,.9-1.3l.5.6a1.5,1.5,0,0,0-.6.9.6.6,0,0,0,.3.6c.3,0,.4-.3.6-.6l.4-.5A1.2,1.2,0,0,1,7,30a1.6,1.6,0,0,1,.9,1.9A2.4,2.4,0,0,1,7,33.4Z"/><path class="cls-1" d="M6.8,29.3a1.6,1.6,0,0,1-1.1-2.1,1.6,1.6,0,0,1,2.1-1,1.6,1.6,0,0,1,1.1,2.1A1.6,1.6,0,0,1,6.8,29.3Zm.7-2.2c-.5-.2-.9-.1-1.1.3s.1.8.7,1A.9.9,0,0,0,8.2,28C8.3,27.6,8,27.3,7.5,27.1Z"/><path class="cls-1" d="M8.4,25.6l-1.7-.8.4-.9,1.6.8c.4.2.7.2.8-.1a.8.8,0,0,0-.1-.8l-1.9-.9.5-.8,2.8,1.3-.3.7h-.4a1.7,1.7,0,0,1,0,1.2C9.8,25.9,9.2,26,8.4,25.6Z"/><path class="cls-1" d="M8.7,20.7l.4-.6.7.3h0a1.4,1.4,0,0,1,0-1.5,1.2,1.2,0,0,1,.5-.5l.5.6-.4.4a1.4,1.4,0,0,0,.1,1.4l1.4.9-.5.8Z"/><path class="cls-1" d="M12.1,18.6a1.7,1.7,0,0,1-.1-2.5,1.9,1.9,0,0,1,1.1-.7v.7l-.6.4A.9.9,0,1,0,14,17.7a1.1,1.1,0,0,0,.3-.8H15a2.1,2.1,0,0,1-.5,1.3A1.6,1.6,0,0,1,12.1,18.6Z"/><path class="cls-1" d="M14.6,15.6a1.5,1.5,0,0,1,.1-2.3,1.3,1.3,0,0,1,2.1.1l.3.3-1.6,1.5a.7.7,0,0,0,1.1-.2,1.2,1.2,0,0,0,.5-.7l.6.2a1.6,1.6,0,0,1-.7,1.1A1.6,1.6,0,0,1,14.6,15.6Zm.5-.9,1-.9a.6.6,0,0,0-.9,0C14.9,14,14.8,14.3,15.1,14.7Z"/><path class="cls-1" d="M20.5,10.3a2,2,0,0,1,.8-2.9,1.5,1.5,0,0,1,1.3-.2l-.2.8a.6.6,0,0,0-.7.1c-.6.3-.7.9-.3,1.7s1,1,1.6.7a1.2,1.2,0,0,0,.5-.7l.7.2a1.6,1.6,0,0,1-.9,1.2A2,2,0,0,1,20.5,10.3Z"/><path class="cls-1" d="M24.3,8.8a1.5,1.5,0,0,1,.9-2.1,1.6,1.6,0,0,1,2.1,1,1.6,1.6,0,1,1-3,1.1ZM26.4,8c-.2-.5-.5-.8-1-.6s-.4.6-.2,1.1.5.8.9.6S26.6,8.5,26.4,8Z"/><path class="cls-1" d="M28,7.4a1.4,1.4,0,0,1,.9-1.9,1,1,0,0,1,.9.1h0l-.2-.5-.3-1,1-.3,1.1,4.4-.8.2V8.1h0c-.2.3-.5.6-.8.6S28.2,8.5,28,7.4Zm2.2.1-.3-1.3a.6.6,0,0,0-.6,0c-.3,0-.5.4-.4,1s.5.8.8.7A.7.7,0,0,0,30.2,7.5Z"/><path class="cls-1" d="M31.9,6.5a1.6,1.6,0,0,1,1.4-1.9A1.5,1.5,0,0,1,35,6v.4l-2.2.3a.9.9,0,0,0,1.1.5,1.3,1.3,0,0,0,.8-.3l.3.5a1.7,1.7,0,0,1-1.2.5A1.5,1.5,0,0,1,31.9,6.5Zm.9-.5h1.3a.7.7,0,1,0-1.3.1Z"/><path class="cls-2" d="M63.8,31c0-1.4.7-2.1,1.7-2.1s1.7.7,1.7,2.1-.7,2.2-1.7,2.2S63.8,32.5,63.8,31Zm2.4,0c0-.8-.2-1.3-.7-1.3s-.7.5-.7,1.3.3,1.4.7,1.4S66.2,31.9,66.2,31Z"/><path class="cls-2" d="M63.9,37.6A2.1,2.1,0,0,1,66,35.3a1.7,1.7,0,0,1,1.2.6l-.5.6a.9.9,0,0,0-.7-.3,1.2,1.2,0,0,0-1.1,1.3c0,.9.5,1.4,1.1,1.4a1,1,0,0,0,.8-.4l.5.6a1.8,1.8,0,0,1-1.4.6A1.9,1.9,0,0,1,63.9,37.6Z"/><path class="cls-2" d="M64,41.9h1.5c.9,0,1.7.3,1.7,1.3a1.2,1.2,0,0,1-.8,1.2l1,1.7H66.3l-.8-1.5H65v1.5H64Zm1.5,1.9c.5,0,.7-.2.7-.6s-.2-.5-.7-.5H65v1.1Z"/><path class="cls-1" d="M14,36c-1-1-1.1-2-.4-2.7s1.7-.6,2.7.4,1.1,2,.4,2.7S15,37,14,36Zm1.7-1.7c-.8-.8-1.2-.8-1.5-.5s-.4.8.4,1.6,1.3.8,1.6.5S16.5,35.1,15.7,34.3Zm-.9.9a.5.5,0,1,1,.7,0A.5.5,0,0,1,14.8,35.2Z"/><path class="cls-1" d="M17.9,34l.8-.8L17,31.5l-.7.6-.4-.4a4.1,4.1,0,0,0,.6-1.1l.5-.5,2.4,2.4.7-.6.6.5-2.2,2.2Z"/><path class="cls-1" d="M19.7,30.3c-1-1-1.1-2-.4-2.7S21,27,22,28s1.1,2.1.4,2.8S20.7,31.4,19.7,30.3Zm1.7-1.7c-.8-.7-1.2-.7-1.5-.4s-.3.7.4,1.5,1.3.8,1.6.5S22.2,29.4,21.4,28.6Zm-.9.9a.5.5,0,1,1,.7,0A.5.5,0,0,1,20.5,29.5Z"/><path class="cls-1" d="M23.6,28.3l.8-.7-1.7-1.8-.6.6-.5-.4a3,3,0,0,0,.6-1.1l.5-.5,2.4,2.5.7-.7.6.6-2.2,2.1Z"/><path class="cls-1" d="M26.5,25.5l.8-.8L25.5,23l-.6.6-.4-.4a3.4,3.4,0,0,0,.5-1.1l.5-.5L28,24l.7-.6.5.5-2.1,2.2Z"/><path class="cls-1" d="M29.4,22.7l.7-.8-1.7-1.8-.6.7-.5-.5a3,3,0,0,0,.6-1.1l.5-.5,2.4,2.5.7-.7.6.6-2.2,2.1Z"/><path class="cls-1" d="M32.2,19.8l.8-.7-1.7-1.8-.7.6-.4-.4a2.7,2.7,0,0,0,.5-1.1l.6-.5,2.4,2.5.7-.7.5.5-2.1,2.2Z"/><path class="cls-1" d="M35.1,17l.8-.8-1.8-1.7-.6.6-.4-.4a4.8,4.8,0,0,0,.5-1.1l.5-.5,2.5,2.4.6-.7.6.6-2.2,2.2Z"/><path class="cls-1" d="M20.7,42.6l.8-.8L19.8,40l-.6.7-.5-.5a3,3,0,0,0,.6-1.1l.5-.5,2.4,2.5.7-.7.6.6-2.2,2.1Z"/><path class="cls-1" d="M23.6,39.7l.8-.7-1.8-1.8-.6.6-.4-.4a2.7,2.7,0,0,0,.5-1.1l.5-.5,2.5,2.5.7-.7.5.5-2.1,2.2Z"/><path class="cls-1" d="M25.4,36.1c-1-1.1-1.1-2.1-.4-2.8s1.7-.6,2.7.4,1.1,2.1.4,2.8S26.4,37.1,25.4,36.1Zm1.7-1.7c-.8-.8-1.3-.8-1.6-.5s-.3.7.5,1.5,1.3.8,1.6.5S27.9,35.2,27.1,34.4Zm-.9.8a.5.5,0,1,1,.7-.7.6.6,0,0,1,0,.8A.4.4,0,0,1,26.2,35.2Z"/><path class="cls-1" d="M28.2,33.2c-1-1-1-2-.3-2.7s1.7-.6,2.7.4,1.1,2,.4,2.7S29.3,34.2,28.2,33.2Zm1.7-1.7c-.7-.8-1.2-.7-1.5-.5s-.3.8.5,1.6,1.2.8,1.5.5S30.7,32.3,29.9,31.5Zm-.9.9a.5.5,0,0,1,0-.7.6.6,0,0,1,.8,0,.5.5,0,0,1,0,.7A.6.6,0,0,1,29,32.4Z"/><path class="cls-1" d="M32.2,31.2l.8-.8-1.8-1.7-.6.6-.4-.4a2.7,2.7,0,0,0,.5-1.1l.5-.5,2.5,2.4.6-.6.6.5-2.2,2.2Z"/><path class="cls-1" d="M35,28.4l.8-.8-1.7-1.7-.7.6L33,26a3.7,3.7,0,0,0,.6-1l.5-.5,2.4,2.4.7-.7.6.6-2.2,2.1Z"/><path class="cls-1" d="M36.8,24.7c-1-1-1.1-2-.4-2.7s1.7-.6,2.7.4,1.2,2,.5,2.7S37.8,25.7,36.8,24.7ZM38.5,23c-.8-.8-1.2-.8-1.5-.5s-.3.8.4,1.6,1.3.8,1.6.5S39.3,23.8,38.5,23Zm-.9.9a.5.5,0,1,1,.7,0A.5.5,0,0,1,37.6,23.9Z"/><path class="cls-1" d="M39.7,21.9c-1-1.1-1.1-2-.4-2.7s1.7-.7,2.7.4,1.1,2,.4,2.7S40.7,22.9,39.7,21.9Zm1.7-1.7c-.8-.8-1.3-.8-1.6-.5s-.3.8.5,1.6,1.3.8,1.6.5S42.2,21,41.4,20.2Zm-.9.9a.6.6,0,0,1,0-.8.4.4,0,0,1,.7.1.5.5,0,0,1-.7.7Z"/></g></g></svg>
