<svg id="logo" xmlns="http://www.w3.org/2000/svg" viewBox="0 0 127.6 127.6"><defs><style>.cls-1{fill:#fff;}.cls-2{fill:#222221;}</style></defs><g id="lg-sw"><circle class="cls-1" cx="63.8" cy="63.8" r="56.7"/><path class="cls-2" d="M23.7,23.7a56.8,56.8,0,0,0,0,80.2l80.2-80.2A56.8,56.8,0,0,0,23.7,23.7Z"/><g id="läufer"><path class="cls-2" d="M90.3,75.9a8.6,8.6,0,0,0-.8-3.8.6.6,0,0,1-.1-.4c.1-.1.2-.2.2-.9a4,4,0,0,0-.4-2.5A3.3,3.3,0,0,0,87.3,67l-2.7-.7a.2.2,0,0,1-.2-.2V64a.9.9,0,0,0,.6-.9,2.4,2.4,0,0,0,0-.9h0c0-.3.2-3-2.5-3a2.6,2.6,0,0,0-2.8,2.7,3.8,3.8,0,0,0,.1,1.5,7.9,7.9,0,0,0,.8,1.1v1.8l-.2.2h-.7c-1.4.1-3.9.6-4.6,1.8s-.8,4-1.1,4.6.3,1.6.4,2.3.5,3.3.5,3.3.4.6.3.8,0,2.5.5,2.9,1.1,2.9,1.6,2.8-.1-1.8-.1-2v-.2l.2-.3V81.3a5.6,5.6,0,0,0,0-1.3c-.2-.5-1-.5-.9-1.1s.4-2.9.4-3.6a15.6,15.6,0,0,0-.6-2.1l1.2-1.6s.4,2.2.4,2.8.7,1,.7,2.6a21.2,21.2,0,0,1-.2,2.4c-.1.8,0,2.7,0,3.1h0l-.5,2c-.1,0-.1.1,0,.2l.9,3.1a9.9,9.9,0,0,0,1.9,2.4,17,17,0,0,0-.5,2.3c.1.7.5,1.7.8,2.8a12,12,0,0,1,.3,2.4c0,.6.6,2.1.8,3.1s-.5,1.7-.4,1.9a3.9,3.9,0,0,1-.1,1.5c-.2.4-1,2.5-.7,3.2s1.1.6,1.5.6-.3,2.8,1.3,2.9,1.6-2.2,1.5-2.9a8.3,8.3,0,0,1,.3-3.9l1.2-2.8c.4-.8,0-3.6,0-4.1a5.2,5.2,0,0,1,.6-2,14.6,14.6,0,0,0,.5-2.7c.1-.7.9-3.8,1-4.6s.1-3.6-.3-4.6a23.9,23.9,0,0,1-.8-5.7h0c.2,1,2,2.1,2.6,1.4S90.2,76.6,90.3,75.9ZM84.2,96.7a14,14,0,0,1-.6,2.8h-.1a20.8,20.8,0,0,1,0-2.5c.1-.5.3-2.1.4-2.7H84A9,9,0,0,1,84.2,96.7Z"/><path class="cls-2" d="M89.3,76.3a3.9,3.9,0,0,0-.5-1.4,9.5,9.5,0,0,1-1.5-2.1c-.2-.8-.3-2.7-.5-3.3a7.6,7.6,0,0,0-1.6-2.1c-.2-.1-.1.2-.1.4s.5,1.5.5,1.8-.4-.6-.5-.4a10.4,10.4,0,0,0,.4,1.3,7.7,7.7,0,0,0,.2,1.5l.7,1.5c.1.3.6,2.7.7,2.9l.5,1.3Z"/><path class="cls-2" d="M80.4,61.2h.2a4.4,4.4,0,0,0,1.5.5,5.2,5.2,0,0,0,2.1-.4c.4-.4.3,2.6.2,2.8s-1.1,1.8-1.8,1.8a3.6,3.6,0,0,1-2-1.4,15.6,15.6,0,0,1-.3-2.5C80.3,61.6,80.4,61.4,80.4,61.2Z"/></g><g id="text"><path class="cls-1" d="M17.7,57.4l-.8-1a3.1,3.1,0,0,0,1-1.5c.1-.6-.1-.9-.4-1s-.6.3-1,.8l-.5.8a1.9,1.9,0,0,1-2,.9,2.1,2.1,0,0,1-1.4-2.6,2.9,2.9,0,0,1,1.3-1.9l.7.9a2,2,0,0,0-.8,1.3c-.1.5.1.8.4.9s.6-.3,1-.9l.5-.7a1.7,1.7,0,0,1,1.9-1c1.1.2,1.8,1.3,1.5,2.8A3.7,3.7,0,0,1,17.7,57.4Z"/><path class="cls-1" d="M17.3,51.3a2.4,2.4,0,0,1-1.6-3.1,2.5,2.5,0,0,1,3.2-1.6,2.5,2.5,0,0,1,1.6,3.2A2.4,2.4,0,0,1,17.3,51.3ZM18.4,48c-.8-.2-1.4-.1-1.6.5s.2,1.2,1,1.4,1.4.1,1.6-.5S19.2,48.3,18.4,48Z"/><path class="cls-1" d="M19.8,45.8l-2.7-1.3.7-1.3,2.5,1.2c.6.3.9.2,1.1-.2s.2-.6-.1-1.1l-2.8-1.4.6-1.3,4.4,2.1-.5,1-.7-.2h0a2.3,2.3,0,0,1,0,1.8C21.8,46.2,20.9,46.3,19.8,45.8Z"/><path class="cls-1" d="M20.2,38.4l.7-1,.9.5h0a2.3,2.3,0,0,1,.1-2.3,1.6,1.6,0,0,1,.7-.7l.8.9-.6.6a1.8,1.8,0,0,0,.2,2.1l2.1,1.3L24.3,41Z"/><path class="cls-1" d="M25.3,35.2a2.6,2.6,0,0,1-.2-3.8,2.8,2.8,0,0,1,1.7-1l.3,1.1a1.4,1.4,0,0,0-1,.6,1.2,1.2,0,0,0,.1,1.9,1.3,1.3,0,0,0,2-.1,2.2,2.2,0,0,0,.4-1.3h1.1a3.2,3.2,0,0,1-.7,2A2.5,2.5,0,0,1,25.3,35.2Z"/><path class="cls-1" d="M29.1,30.7a2.5,2.5,0,0,1,.1-3.6,2.3,2.3,0,0,1,3.3.1,6.1,6.1,0,0,1,.4.6L30.4,30a1.4,1.4,0,0,0,1.8-.2,4.1,4.1,0,0,0,.7-1.1l.9.3a3,3,0,0,1-1,1.7A2.5,2.5,0,0,1,29.1,30.7Zm.7-1.4,1.5-1.4a.9.9,0,0,0-1.3,0A1.1,1.1,0,0,0,29.8,29.3Z"/><path class="cls-1" d="M38.1,22.6a3,3,0,0,1,1-4.4,3.1,3.1,0,0,1,2.1-.2l-.3,1.2a1.7,1.7,0,0,0-1.2.1c-.8.4-1,1.4-.4,2.6s1.6,1.5,2.4,1a1.3,1.3,0,0,0,.8-1l1.1.3a2.7,2.7,0,0,1-1.4,1.9A2.9,2.9,0,0,1,38.1,22.6Z"/><path class="cls-1" d="M43.6,20.5A2.5,2.5,0,0,1,45,17.2a2.4,2.4,0,0,1,3.2,1.5,2.3,2.3,0,0,1-1.4,3.2A2.4,2.4,0,0,1,43.6,20.5Zm3.2-1.3c-.3-.8-.8-1.2-1.4-.9s-.7.8-.4,1.6.8,1.2,1.4.9S47.2,20,46.8,19.2Z"/><path class="cls-1" d="M49.2,18.3c-.4-1.5.3-2.7,1.4-2.9a1.2,1.2,0,0,1,1.3.2h0l-.2-.8-.5-1.6,1.4-.3,1.7,6.6-1.1.3-.2-.4h-.1a1.7,1.7,0,0,1-1.1.9C50.6,20.6,49.6,19.9,49.2,18.3Zm3.4.1-.5-1.9a1.4,1.4,0,0,0-.9-.1c-.5.1-.8.7-.6,1.6s.7,1.2,1.3,1.1A1.2,1.2,0,0,0,52.6,18.4Z"/><path class="cls-1" d="M55.1,16.9a2.4,2.4,0,0,1,2.2-2.8,2.1,2.1,0,0,1,2.5,2c.1.2,0,.5,0,.6l-3.2.4a1.2,1.2,0,0,0,1.5.9,2.6,2.6,0,0,0,1.2-.5l.6.8a4.2,4.2,0,0,1-1.8.8A2.5,2.5,0,0,1,55.1,16.9Zm1.4-.7,2-.3a.9.9,0,0,0-1-.8A1.1,1.1,0,0,0,56.5,16.2Z"/><path class="cls-2" d="M103.4,53.9c0-2.1,1.1-3.2,2.6-3.2s2.6,1.1,2.6,3.2-1.1,3.4-2.6,3.4S103.4,56.1,103.4,53.9Zm3.7,0c0-1.3-.4-2-1.1-2s-1.1.7-1.1,2,.4,2.1,1.1,2.1S107.1,55.3,107.1,53.9Z"/><path class="cls-2" d="M103.6,63.8c0-2.1,1.3-3.4,3-3.4a2.5,2.5,0,0,1,1.9.9l-.7.8a2.5,2.5,0,0,0-1.2-.4c-.9,0-1.5.8-1.5,2s.6,2.1,1.6,2.1a1.3,1.3,0,0,0,1.1-.6l.8.9a2.7,2.7,0,0,1-2.1,1A3,3,0,0,1,103.6,63.8Z"/><path class="cls-2" d="M103.8,70.3H106c1.4,0,2.5.5,2.5,2a1.9,1.9,0,0,1-1.2,1.9l1.5,2.5h-1.6l-1.3-2.3h-.7v2.3h-1.4Zm2.1,3c.8,0,1.2-.4,1.2-1s-.4-.8-1.2-.8h-.7v1.8Z"/><path class="cls-1" d="M28,61.3c-1.5-1.6-1.6-3.1-.6-4.1s2.6-1,4.1.6,1.7,3,.6,4.1S29.6,62.8,28,61.3Zm2.6-2.6c-1.2-1.2-1.9-1.2-2.3-.7s-.5,1.1.7,2.3,1.9,1.2,2.3.8S31.8,59.9,30.6,58.7ZM29.2,60a.8.8,0,0,1,0-1.1.7.7,0,0,1,1.1.1.7.7,0,0,1,0,1A.7.7,0,0,1,29.2,60Z"/><path class="cls-1" d="M34,58.2l1.1-1.1-2.6-2.7-.9,1-.7-.7a3.4,3.4,0,0,0,.8-1.6l.8-.8L36.2,56l1-1,.9.8-3.3,3.3Z"/><path class="cls-1" d="M36.7,52.7c-1.6-1.6-1.7-3.1-.6-4.1s2.5-1,4.1.6,1.6,3.1.6,4.1S38.2,54.2,36.7,52.7Zm2.5-2.6C38,49,37.3,49,36.9,49.4s-.5,1.2.7,2.4,1.9,1.2,2.4.7S40.4,51.3,39.2,50.1Zm-1.3,1.4c-.4-.4-.4-.8-.1-1.1a.8.8,0,0,1,1.1,0,.7.7,0,0,1,0,1.1A.7.7,0,0,1,37.9,51.5Z"/><path class="cls-1" d="M42.6,49.7l1.2-1.2-2.7-2.6-.9.9-.7-.7a5.3,5.3,0,0,0,.9-1.6l.7-.8,3.7,3.8,1.1-1.1.8.9-3.3,3.2Z"/><path class="cls-1" d="M46.9,45.4l1.2-1.2-2.6-2.6-1,.9-.6-.6a8.5,8.5,0,0,0,.8-1.7l.7-.7,3.7,3.7,1.1-1.1.8.9-3.3,3.2Z"/><path class="cls-1" d="M51.2,41.1l1.2-1.2-2.6-2.6-1,.9-.6-.6a6.5,6.5,0,0,0,.8-1.7l.8-.7,3.6,3.7,1.1-1,.8.8L52.1,42Z"/><path class="cls-1" d="M55.5,36.8l1.2-1.1L54.1,33l-1,1-.6-.7a4.8,4.8,0,0,0,.8-1.6l.8-.8,3.7,3.7,1-1,.8.8-3.2,3.3Z"/><path class="cls-1" d="M59.8,32.5,61,31.4l-2.6-2.7-1,1-.6-.7a4.8,4.8,0,0,0,.8-1.6l.8-.8,3.7,3.7,1-1,.9.9-3.3,3.2Z"/><path class="cls-1" d="M38.2,71.1,39.4,70l-2.6-2.7-1,1-.6-.7A7.9,7.9,0,0,0,36,66l.8-.8,3.6,3.7,1.1-1,.8.9L39.1,72Z"/><path class="cls-1" d="M42.5,66.9l1.2-1.2-2.6-2.6-1,.9-.6-.7a7.9,7.9,0,0,0,.8-1.6l.8-.8,3.7,3.7,1-1,.8.9-3.2,3.2Z"/><path class="cls-1" d="M45.2,61.3c-1.5-1.5-1.6-3-.6-4.1s2.6-.9,4.1.6,1.7,3.1.6,4.2S46.7,62.9,45.2,61.3Zm2.6-2.5c-1.2-1.2-1.9-1.2-2.4-.8s-.4,1.2.8,2.4,1.9,1.2,2.3.7S49,60,47.8,58.8Zm-1.4,1.3a.8.8,0,1,1,1.1,0A.8.8,0,0,1,46.4,60.1Z"/><path class="cls-1" d="M49.5,57c-1.5-1.5-1.6-3-.6-4.1s2.6-.9,4.1.6,1.7,3.1.7,4.2S51.1,58.6,49.5,57Zm2.6-2.5c-1.2-1.2-1.9-1.2-2.3-.7s-.5,1.1.7,2.3,1.9,1.2,2.3.8S53.3,55.7,52.1,54.5Zm-1.4,1.3a.8.8,0,1,1,1.1,0A.8.8,0,0,1,50.7,55.8Z"/><path class="cls-1" d="M55.5,54l1.1-1.2L54,50.2l-.9.9-.7-.6a3.4,3.4,0,0,0,.8-1.6l.8-.8,3.7,3.7,1-1,.9.8-3.3,3.3Z"/><path class="cls-1" d="M59.8,49.7l1.1-1.1-2.6-2.7-.9,1-.7-.7a3.4,3.4,0,0,0,.8-1.6l.8-.8L62,47.5l1-1,.9.8-3.3,3.3Z"/><path class="cls-1" d="M62.5,44.2c-1.6-1.6-1.7-3.1-.6-4.1s2.5-1,4.1.6,1.7,3.1.6,4.1S64,45.7,62.5,44.2ZM65,41.6c-1.1-1.1-1.8-1.1-2.3-.7s-.5,1.2.7,2.4,1.9,1.2,2.4.7S66.2,42.8,65,41.6ZM63.7,43a.7.7,0,0,1,0-1.1.7.7,0,0,1,1,0,.7.7,0,0,1,.1,1.1A.8.8,0,0,1,63.7,43Z"/><path class="cls-1" d="M66.8,39.9c-1.6-1.5-1.7-3-.6-4.1s2.5-.9,4.1.6,1.7,3.1.6,4.1S68.3,41.4,66.8,39.9Zm2.5-2.5c-1.1-1.2-1.8-1.2-2.3-.8s-.5,1.2.7,2.4,1.9,1.2,2.4.7S70.5,38.5,69.3,37.4ZM68,38.7a.8.8,0,1,1,1.1,0A.8.8,0,0,1,68,38.7Z"/></g></g></svg>
